<?xml version="1.0" encoding="UTF-8" standalone="no"?>
<!-- Created with Inkscape (http://www.inkscape.org/) -->

<svg
   xmlns:dc="http://purl.org/dc/elements/1.1/"
   xmlns:cc="http://creativecommons.org/ns#"
   xmlns:rdf="http://www.w3.org/1999/02/22-rdf-syntax-ns#"
   xmlns:svg="http://www.w3.org/2000/svg"
   xmlns="http://www.w3.org/2000/svg"
   xmlns:sodipodi="http://sodipodi.sourceforge.net/DTD/sodipodi-0.dtd"
   xmlns:inkscape="http://www.inkscape.org/namespaces/inkscape"
   width="424.11194"
   height="291.82269"
   id="svg2"
   version="1.1"
   inkscape:version="0.48.1 r9760"
   sodipodi:docname="debunked.svg">
  <defs
     id="defs4" />
  <sodipodi:namedview
     id="base"
     pagecolor="#ffffff"
     bordercolor="#666666"
     borderopacity="1.0"
     inkscape:pageopacity="0.0"
     inkscape:pageshadow="2"
     inkscape:zoom="1"
     inkscape:cx="328.33296"
     inkscape:cy="225.78469"
     inkscape:document-units="px"
     inkscape:current-layer="layer1"
     showgrid="false"
     fit-margin-top="32"
     fit-margin-left="0"
     fit-margin-right="0"
     fit-margin-bottom="0"
     inkscape:window-width="1366"
     inkscape:window-height="744"
     inkscape:window-x="0"
     inkscape:window-y="24"
     inkscape:window-maximized="1" />
  <metadata
     id="metadata7">
    <rdf:RDF>
      <cc:Work
         rdf:about="">
        <dc:format>image/svg+xml</dc:format>
        <dc:type
           rdf:resource="http://purl.org/dc/dcmitype/StillImage" />
        <dc:title></dc:title>
      </cc:Work>
    </rdf:RDF>
  </metadata>
  <g
     inkscape:label="Layer 1"
     inkscape:groupmode="layer"
     id="layer1"
     transform="translate(-161.75101,-384.45712)">
    <g
       id="g3840">
      <rect
         ry="0"
         transform="matrix(0.95774997,-0.28760216,0.3028593,0.95303528,0,0)"
         y="585.90479"
         x="-8.207386"
         height="53.622093"
         width="410.43066"
         id="rect3838"
         style="fill:#ffffff;fill-opacity:1;stroke:none" />
      <path
         inkscape:connector-curvature="0"
         id="path3049"
         d="m 356.88322,675.53022 c -13.79232,-1.2666 -39.57589,-9.16919 -53.24349,-16.31896 -17.25738,-9.02766 -45.2778,-35.52606 -52.65794,-49.79765 -1.23864,-2.39529 -2.99857,-4.35507 -3.91095,-4.35507 -2.62304,0 -18.82524,4.35301 -40.50264,10.88177 -22.7411,6.84912 -24.66606,7.07963 -26.74119,3.20222 -2.5907,-4.84077 -18.78247,-63.54251 -18.05204,-65.44598 0.67975,-1.77141 18.58082,-7.39846 49.57224,-15.58261 l 15.53112,-4.10143 0.9991,-14.21335 c 0.5495,-7.81734 2.02029,-17.57944 3.26843,-21.69353 1.24813,-4.11409 2.2856,-9.8994 2.30548,-12.85622 0.0329,-4.8992 9.56064,-26.23504 14.40433,-32.25631 1.01939,-1.26721 2.7171,-4.03204 3.77271,-6.14406 1.05561,-2.11202 5.5488,-8.32983 9.98488,-13.81737 18.77317,-23.22285 51.80107,-41.98697 83.96425,-47.70254 3.80163,-0.67557 19.35378,-1.03543 34.56032,-0.7997 l 27.64826,0.42863 15.30135,5.78727 c 15.86661,6.00109 19.64624,8.15421 35.79775,20.39288 10.58505,8.02073 28.17988,28.59118 32.18736,37.63085 2.77132,6.25127 3.16223,6.45303 8.41814,4.34477 9.06554,-3.63642 67.30012,-18.87113 69.25995,-18.11907 1.30637,0.50129 3.64879,6.72963 5.71066,15.18419 1.92267,7.88384 5.37445,20.90072 7.67059,28.9264 4.77957,16.70586 4.94265,23.10288 0.62994,24.70922 -2.96018,1.10253 -17.93495,5.7297 -42.11048,13.01201 -21.60549,6.50814 -19.72415,4.48247 -19.75859,21.2744 -0.0849,41.41291 -25.62215,87.16959 -62.41819,111.83876 -30.78471,20.639 -64.10721,29.03281 -101.59135,25.59048 z m 34.77472,-12.11871 c 11.14323,-1.70584 22.23513,-4.23557 26.88025,-6.1306 26.80668,-10.9361 42.05854,-21.16811 56.7206,-38.05212 17.72771,-20.41426 29.12394,-44.60472 33.89056,-71.93853 2.7547,-15.79659 2.90181,-20.56846 0.63411,-20.56846 -2.06024,0 -15.80201,3.7905 -28.39441,7.83226 l -9.34183,2.99841 -1.89909,10.32882 c -1.99877,10.87096 -10.78074,32.9194 -14.7649,37.06951 -1.29022,1.34397 -5.04949,5.93899 -8.35393,10.21115 -8.18089,10.57673 -31.908,26.79275 -39.20286,26.79275 -1.31232,0 -3.58628,0.64535 -5.05324,1.43413 -8.38845,4.51039 -31.24485,6.04944 -48.31572,3.25334 -4.8313,-0.79134 -15.44066,-4.63359 -23.57635,-8.53834 -11.78196,-5.65481 -16.98365,-9.29106 -25.56133,-17.86875 -9.99439,-9.99437 -11.06095,-10.65558 -14.82403,-9.1899 -2.23016,0.86862 -10.11348,3.38521 -17.51848,5.59243 l -13.46366,4.01315 5.01558,6.99215 c 7.72348,10.76722 31.74077,32.85209 42.74887,39.30933 23.37508,13.71157 58.09188,20.48349 84.37986,16.45927 z m -18.43217,-8.4807 c 0,-1.29374 1.03681,-2.7501 2.30402,-3.23637 1.64954,-0.63299 2.30402,-3.21144 2.30402,-9.07723 0,-7.51747 1.8738,-11.62064 4.23055,-9.26389 0.52478,0.52478 1.25308,5.08683 1.61844,10.13791 0.46749,6.46283 1.29223,9.18375 2.7837,9.18375 4.54463,0 1.80941,2.72132 -3.64064,3.62216 -8.44827,1.3964 -9.60009,1.23248 -9.60009,-1.36633 z m -28.20203,-1.78557 c -2.73026,-2.73029 1.38175,-21.97446 4.69541,-21.97446 1.7386,0 2.17489,1.20046 1.67477,4.60805 -0.58613,3.99354 -0.19972,4.60804 2.89769,4.60804 2.56841,0 3.57401,-0.87793 3.57401,-3.12023 0,-3.04524 3.85833,-5.82157 5.62925,-4.05064 1.77041,1.77041 -2.84017,20.995 -5.03516,20.995 -1.2227,0 -2.1301,-1.56581 -2.1301,-3.6757 0,-3.65063 -3.60629,-6.34082 -6.28267,-4.68672 -0.76858,0.47502 -1.3974,2.16448 -1.3974,3.75438 0,3.13001 -2.04255,5.12551 -3.6258,3.54228 z m 56.58206,-5.30709 c 0.64573,-3.6758 1.07269,-8.87769 0.94881,-11.55974 -0.2968,-6.42614 2.50341,-7.96853 4.56057,-2.51202 0.89503,2.37404 3.82338,6.59303 6.50743,9.37551 4.0246,4.17218 4.48346,5.30416 2.61755,6.45735 -1.57258,0.97192 -3.28791,0.43502 -5.62507,-1.76062 l -3.36253,-3.15894 -0.50125,4.36852 c -0.32434,2.82682 -1.5279,4.56345 -3.4104,4.92087 -2.63205,0.49974 -2.79733,-0.0842 -1.73511,-6.13093 z m -77.66109,-2.23018 c -4.43461,-5.34338 -1.34486,-12.52734 4.57923,-10.64712 4.25221,1.34961 5.61677,8.28557 2.14768,10.91652 -3.57452,2.71089 -4.27683,2.68277 -6.72691,-0.2694 z m 104.18671,-7.05983 c -9.70909,-13.15905 -10.45862,-15.05743 -5.94504,-15.05743 1.70369,0 3.91911,2.03914 5.42362,4.99205 l 2.54344,4.99204 -0.98997,-7.29607 c -1.04878,-7.7293 -0.67531,-8.24446 4.11731,-5.67953 2.71775,1.4545 2.92189,1.22354 2.03653,-2.30402 -0.74673,-2.97523 -0.39364,-3.92056 1.46444,-3.92056 3.25845,0 12.55098,18.20432 10.39371,20.36159 -1.66027,1.66028 -3.70815,1.03284 -8.80323,-2.69718 -3.11704,-2.28191 -3.20245,-2.16939 -3.07203,4.04671 0.17066,8.1343 -2.38396,9.04742 -7.16878,2.5624 z m 27.38019,-22.08179 c -1.3473,-5.36807 2.26719,-8.81628 7.254,-6.9203 4.01371,1.52601 6.44154,7.15672 3.79188,8.7943 -0.88701,0.5482 -3.51744,1.2185 -5.84538,1.48955 -3.43397,0.39982 -4.41524,-0.23483 -5.2005,-3.36355 z m -56.9416,-0.60584 c 4.22404,-1.1161 8.37127,-2.539 9.21608,-3.16198 4.57163,-3.37129 19.20018,-10.27454 19.20018,-9.06062 0,0.78134 0.69121,1.42063 1.53602,1.42063 0.84481,0 1.41539,-0.51841 1.26796,-1.15202 -0.49691,-2.13555 3.81794,-9.60009 5.54929,-9.60009 1.93868,0 5.89453,-4.26757 8.54289,-9.21608 1.8709,-3.4958 5.2332,-7.89734 9.4437,-12.36257 1.39239,-1.47663 3.00254,-4.82878 3.57808,-7.44922 0.57555,-2.62044 1.61802,-4.76444 2.31662,-4.76444 0.69858,0 0.90936,-1.37971 0.46837,-3.06603 -0.52075,-1.99136 0.3804,-4.0233 2.57102,-5.79716 2.45183,-1.98536 3.23431,-4.03892 2.8656,-7.52054 l -0.50719,-4.78944 -17.66417,5.34973 c -9.71529,2.94234 -23.53942,7.07093 -30.72029,9.17463 -7.18087,2.10369 -15.82095,4.74482 -19.20018,5.86917 -6.07947,2.02278 -9.42171,3.01569 -46.84844,13.9176 -10.5601,3.07602 -24.98493,7.38128 -32.05519,9.56726 l -12.85503,3.97452 8.32341,7.78033 c 4.57788,4.27918 9.78244,8.93025 11.56567,10.33571 4.43397,3.49465 16.33851,8.63744 22.79991,9.84961 2.92996,0.54966 5.66465,1.54539 6.0771,2.21275 1.18482,1.9171 36.02871,0.73415 44.52859,-1.51175 z M 204.44337,599.41625 c 2.43587,-0.48718 4.42885,-1.17746 4.42885,-1.53397 0,-1.22702 -12.41406,-41.07813 -12.96922,-41.63331 -0.8229,-0.8229 -13.66222,3.02339 -15.44705,4.62749 -1.00007,0.8988 -0.67388,2.01802 0.93483,3.20761 2.75104,2.03435 11.15674,28.94243 10.8123,34.61205 -0.19254,3.16916 0.28171,3.49574 3.79571,2.61377 2.20865,-0.55433 6.00872,-1.40648 8.44458,-1.89364 z m 16.01917,-8.84142 c 8.70673,-13.28817 -1.07747,-36.20477 -15.45756,-36.20477 -6.06712,0 -8.17479,2.27359 -4.11956,4.44389 3.46651,1.85521 11.7195,28.04303 10.44187,33.13346 -0.47472,1.89143 -0.43922,3.86287 0.079,4.38097 1.44387,1.44387 6.40603,-1.70861 9.05637,-5.75355 z m 32.4628,-6.01719 c 0.40831,-0.4083 -1.97388,-9.61396 -5.29375,-20.45702 -5.97188,-19.50484 -6.08357,-19.71223 -10.49363,-19.4871 -2.45164,0.12519 -6.53114,1.04081 -9.06556,2.03476 -4.00877,1.57219 -4.28925,2.042 -2.15666,3.61248 2.8002,2.06216 12.73759,32.62123 11.34218,34.87905 -2.09473,3.38934 1.12006,4.31489 7.89995,2.27444 3.8638,-1.16283 7.35917,-2.4483 7.76747,-2.85661 z m 14.93509,-4.12332 c 1.63347,-1.58317 -2.15377,-12.43541 -4.4597,-12.77917 -0.84481,-0.12595 -1.7478,1.59999 -2.00663,3.8354 -0.25885,2.23539 -1.81407,5.28016 -3.45603,6.76612 -1.64199,1.48597 -2.98542,3.36276 -2.98542,4.17066 0,1.71161 10.80714,0.043 12.90778,-1.99301 z m 19.93925,-5.50528 c 4.05411,-1.38138 6.99266,-3.25377 6.62924,-4.22404 -0.35905,-0.95855 -2.52303,-8.30927 -4.80887,-16.33494 -6.64653,-23.33619 -6.6604,-23.36132 -12.22833,-22.15087 -7.48211,1.62658 -11.68697,3.5035 -11.68697,5.21669 0,0.86572 0.89831,1.57403 1.99624,1.57403 2.29846,0 10.85303,27.61564 10.5869,34.17633 -0.20069,4.94747 -8.4e-4,4.98409 9.51179,1.7428 z m 18.99346,-6.71802 c 4.8026,-2.92819 5.66031,-4.87743 5.0765,-11.53694 -0.34335,-3.91658 -5.60672,-8.44808 -9.81248,-8.44808 -3.22796,0 -3.22713,-0.0123 0.17016,-2.39111 4.14208,-2.90123 4.59941,-10.64905 0.87172,-14.76811 -2.52115,-2.78585 -11.45274,-3.8259 -16.43548,-1.91384 -2.73625,1.05 -1.61189,5.24893 1.40555,5.24893 3.00068,0 5.69606,10.70872 3.39364,13.48297 -1.42972,1.72271 -1.02675,2.74889 1.96597,5.00631 3.12453,2.35685 3.76433,4.15967 3.76433,10.60726 0,8.88237 1.52964,9.63327 9.60009,4.71261 z m -47.25576,0.36717 c -0.0648,-3.20056 -4.2958,-14.87983 -5.54084,-15.29485 -0.78751,-0.2625 -2.20524,1.57165 -3.15048,4.07589 -1.47988,3.92065 -1.26067,5.08309 1.57799,8.36777 3.16241,3.6593 7.16213,5.2625 7.11333,2.85119 z m 84.50411,-9.8851 c 0,-1.00155 -1.30421,-3.24798 -2.89827,-4.99204 -3.46083,-3.78654 -11.31071,-30.33313 -9.98847,-33.77884 1.21726,-3.17213 -2.81151,-3.16157 -12.18387,0.032 -7.8091,2.66084 -8.31856,3.26092 -4.94984,5.83035 1.22972,0.93793 4.01206,7.89112 6.18295,15.4515 2.1709,7.56039 5.07353,14.99086 6.45029,16.51216 2.9361,3.24435 17.38721,4.02975 17.38721,0.94497 z m 8.36099,-4.66481 c 3.16781,-4.52269 2.99094,-9.15737 -0.80762,-21.16242 -2.06327,-6.52079 -2.84932,-11.98216 -2.26605,-15.74415 0.97623,-6.2966 0.54554,-6.56269 -6.59413,-4.07377 -5.31641,1.8533 -6.41163,5.22378 -2.06666,6.36002 1.93028,0.50478 3.79374,4.24585 6.14406,12.33467 3.9554,13.61297 4.25233,19.31457 1.06945,20.53594 -2.94542,1.13028 -3.01346,5.16352 -0.0871,5.16352 1.2193,0 3.29292,-1.53622 4.60804,-3.41381 z m -93.44659,-7.6743 c -1.40035,-7.00174 -2.89402,-7.94838 -9.23788,-5.85472 -6.24886,2.06232 -7.49293,6.19073 -1.86549,6.19073 2.00857,0 4.51242,1.03681 5.56412,2.30402 1.05169,1.26721 2.95074,2.30402 4.22012,2.30402 1.78003,0 2.08176,-1.13089 1.31913,-4.94405 z m 121.39133,1.79241 4.24942,-1.61563 -4.06593,-3.37642 c -2.56118,-2.12686 -4.97598,-6.59741 -6.52502,-12.07985 -2.41378,-8.54297 -6.92398,-15.12846 -6.92398,-10.10994 0,1.26444 1.03125,5.22187 2.29167,8.79427 2.65417,7.52272 3.20268,13.50038 1.58885,17.31517 -1.349,3.18877 2.62436,3.6428 9.38499,1.0724 z m 23.39607,-6.88569 c 0.31434,-0.31433 0.0799,-3.19579 -0.52122,-6.4032 -0.84218,-4.49452 -3.7901,-8.5545 -12.8565,-17.70649 -6.47006,-6.53115 -12.54961,-12.18191 -13.51011,-12.55727 -3.43545,-1.34255 -16.66923,3.06019 -17.18066,5.71582 -0.27413,1.42345 0.45469,2.58811 1.61962,2.58811 1.16491,0 9.33728,6.89816 18.16079,15.32924 13.6231,13.01718 16.62148,15.19923 19.87965,14.46727 2.11029,-0.47406 4.09408,-1.11914 4.40843,-1.43348 z m 28.20277,-8.32791 c 5.2978,-1.65279 13.60679,-4.09132 18.46443,-5.41896 4.85765,-1.32763 8.83209,-3.08576 8.83209,-3.90696 0,-0.82122 -0.61335,-1.49312 -1.363,-1.49312 -0.74965,0 -5.29205,-4.8629 -10.09421,-10.80644 -7.47641,-9.25341 -8.59081,-11.44561 -7.75435,-15.25401 0.53726,-2.44616 1.96923,-5.27117 3.18214,-6.2778 1.21291,-1.00662 2.20529,-2.83731 2.20529,-4.06821 0,-1.72075 -1.15375,-1.99029 -4.99205,-1.1662 -6.3001,1.35261 -10.3681,3.45973 -10.3681,5.3704 0,0.81508 1.03681,1.48197 2.30402,1.48197 2.86811,0 2.89154,3.33056 0.0883,12.56732 -2.14846,7.07946 -2.10912,7.30188 2.53012,14.30586 3.51872,5.31229 4.27033,7.55677 2.96703,8.86008 -1.09581,1.09581 -2.25401,1.20236 -3.11168,0.28628 -2.52435,-2.69627 -9.59894,-30.35365 -8.69031,-33.97392 1.10592,-4.40633 -1.58629,-4.6618 -11.9421,-1.13322 -6.60948,2.25207 -9.41286,5.76928 -5.609,7.03723 2.25039,0.75013 10.91099,30.47425 9.85165,33.81192 -1.14827,3.61788 1.32111,3.57724 13.49964,-0.22222 z m -173.39096,-9.4969 15.7539,-4.82191 2.56379,-12.45825 c 3.76219,-18.28154 12.99713,-35.85535 25.4725,-48.47338 12.41591,-12.55787 24.70395,-19.92192 42.6891,-25.58298 11.68937,-3.67937 16.18784,-4.28422 32.03141,-4.30686 16.16511,-0.023 19.70581,0.46197 28.7873,3.9437 15.69797,6.01842 26.99895,13.28716 38.09173,24.50049 l 10.04648,10.15566 13.62147,-4.3271 c 7.4918,-2.3799 15.5854,-4.75845 17.98578,-5.28565 2.40037,-0.52721 4.36431,-1.64944 4.36431,-2.49381 0,-1.90025 -15.00136,-19.6583 -19.20018,-22.72847 -1.68962,-1.23543 -6.52806,-5.47512 -10.7521,-9.42153 -14.97464,-13.99039 -41.23929,-24.7502 -67.10579,-27.49114 -43.43109,-4.60218 -80.73529,7.4324 -111.37346,35.9298 -18.95259,17.62832 -29.61735,34.75265 -36.62637,58.81071 -4.51407,15.49432 -6.88138,38.87264 -3.93627,38.87264 1.00787,0 8.92176,-2.16986 17.5864,-4.82192 z m 28.2709,-76.10944 c -2.71302,-0.70907 -5.39522,-7.49936 -3.65119,-9.24338 0.51856,-0.51856 2.97445,-1.0637 5.45752,-1.21142 3.61005,-0.21477 4.70247,0.4796 5.45183,3.46532 0.86465,3.44501 -1.35443,8.28634 -3.60724,7.86991 -0.53017,-0.098 -2.17308,-0.4942 -3.65092,-0.88043 z m 19.60902,-12.71446 c -6.1204,-12.07802 -4.46291,-16.69694 3.864,-10.76768 l 4.63692,3.30178 -0.96758,-6.05086 c -1.33314,-8.33703 2.46851,-9.83745 7.56562,-2.98595 7.94,10.67284 9.24757,13.43018 7.29277,15.37851 -1.43662,1.43186 -2.50417,0.98749 -4.80223,-1.99889 -1.62521,-2.11202 -2.9703,-4.81925 -2.98908,-6.01606 -0.0187,-1.1968 -0.43015,-1.78003 -0.91415,-1.29605 -0.48398,0.48399 -0.19559,3.35859 0.64087,6.388 1.8537,6.71355 0.19492,8.11647 -5.32238,4.50139 -4.07196,-2.66805 -4.09495,-2.66214 -2.34741,0.6032 2.38489,4.45619 2.21965,6.57162 -0.51329,6.57162 -1.25299,0 -4.01782,-3.43305 -6.14406,-7.62901 z m 36.77503,-11.18717 c -0.57115,-1.90081 -3.50001,-6.02468 -6.50857,-9.16414 -4.67715,-4.88064 -5.08999,-5.85396 -2.84788,-6.71434 1.55672,-0.59738 3.84729,0.10245 5.63706,1.72213 2.9018,2.62608 3.01482,2.61133 3.01482,-0.39365 0,-2.96975 3.9693,-7.72093 5.32104,-6.36919 1.13885,1.13884 -1.11775,24.37523 -2.36721,24.37523 -0.66594,0 -1.67811,-1.55522 -2.24926,-3.45604 z m 55.09843,-2.53242 c 0.80572,-4.0286 0.48915,-4.76365 -2.05164,-4.76365 -1.92362,0 -3.35106,1.38134 -3.96815,3.84004 -0.6031,2.40299 -2.0511,3.84004 -3.8693,3.84004 -3.37637,0 -3.44281,-0.98043 -0.82604,-12.19158 2.15846,-9.24758 5.10897,-11.8494 5.8738,-5.17966 0.35729,3.11592 1.45527,4.45151 3.95085,4.80595 2.81471,0.39976 3.45603,-0.24156 3.45603,-3.45604 0,-2.48431 0.85378,-3.94686 2.30402,-3.94686 4.60583,0 1.80813,20.34591 -2.92299,21.25704 -2.49034,0.47959 -2.76492,-0.11366 -1.94658,-4.20528 z m -31.90315,-2.51148 c -0.57595,-3.06995 -0.61618,-7.544 -0.0894,-9.94231 0.84447,-3.84485 0.58305,-4.26258 -2.21026,-3.53212 -2.23523,0.58452 -3.16802,0.0972 -3.16802,-1.65471 0,-1.9859 1.6918,-2.48317 8.44808,-2.48317 8.47293,0 11.62992,2.52756 5.24311,4.19774 -2.85101,0.74557 -3.14786,1.78608 -2.68803,9.42196 0.41983,6.97105 0.0467,8.6769 -1.98569,9.07911 -1.80921,0.35803 -2.79282,-1.05137 -3.54979,-5.0865 z m 53.4919,2.71637 c -3.42221,-2.25451 -3.80832,-7.43298 -0.75988,-10.19178 5.78165,-5.23231 12.34556,3.80443 6.86211,9.44728 -2.11965,2.18127 -3.63975,2.36673 -6.10223,0.7445 z m 56.98747,99.16188 c 4.70434,-1.25823 6.93411,-2.67743 6.93411,-4.41342 0,-2.36266 -10.49468,-38.47571 -11.47825,-39.49759 -0.86728,-0.90106 -14.70854,3.17114 -15.58193,4.58432 -0.49263,0.79712 0.0937,2.26731 1.30306,3.26711 3.1029,2.56531 10.95535,30.6631 9.68655,34.66069 -1.20466,3.79559 -0.32698,3.92997 9.13646,1.39889 z m -80.29333,-9.19696 c -0.88916,-3.22033 -0.83599,-6.34995 0.14531,-8.54906 2.11746,-4.74539 0.70256,-5.60106 -5.7438,-3.47357 -5.20958,1.7193 -7.72096,6.17801 -3.4798,6.17801 1.09954,0 3.61199,3.62884 5.58322,8.06408 3.81243,8.578 6.07902,7.13869 3.4951,-2.21946 z m -64.83799,-9.36794 c 21.5426,-6.36196 48.49965,-14.15103 59.90456,-17.30907 41.55239,-11.5059 54.52851,-15.72567 54.52851,-17.73238 0,-2.3039 -16.88388,-16.5142 -26.51816,-22.31898 -8.59775,-5.18026 -26.3969,-9.71365 -38.2673,-9.74658 -30.46258,-0.0845 -54.94037,9.19452 -72.74933,27.57778 -5.62478,5.80617 -11.46094,13.2026 -12.96926,16.43651 -1.50831,3.23391 -3.95277,7.04269 -5.43214,8.46395 -2.4535,2.35713 -6.11333,17.60315 -6.11333,25.46676 0,2.79426 0.56189,3.05712 4.22404,1.97609 2.32322,-0.6858 21.8498,-6.45214 43.39241,-12.81408 z m 164.83704,12.84759 c 3.55507,-1.35164 3.66643,-1.7615 2.08669,-7.68007 -1.9539,-7.32029 -4.98131,-8.14994 -6.3869,-1.75033 -0.54385,2.47605 -1.98117,5.32551 -3.19408,6.33214 -4.96996,4.12469 -0.29205,6.05861 7.49429,3.09826 z m 21.87654,-6.43458 c 3.75333,-0.94511 6.82424,-2.5123 6.82424,-3.48265 0,-2.97552 -10.72201,-38.39171 -12.01395,-39.68365 -1.24064,-1.24064 -15.63431,2.98304 -15.63431,4.58772 0,0.48767 0.90895,1.97791 2.01989,3.31164 3.02411,3.63057 10.53397,30.6562 9.45947,34.04165 -1.08983,3.43379 0.005,3.57724 9.34466,1.22529 z m 20.41163,-11.43158 c 4.34375,-9.53351 1.01032,-23.27749 -7.35232,-30.31419 -5.59544,-4.70825 -15.45116,-5.88722 -15.45116,-1.8483 0,1.26721 1.01459,2.30402 2.25466,2.30402 1.50649,0 3.57819,4.45976 6.24334,13.44013 2.1938,7.39207 4.30157,14.39175 4.68393,15.55483 0.38236,1.16309 -0.13625,3.11659 -1.15254,4.3411 -1.45248,1.75014 -1.40292,2.50133 0.2317,3.51158 2.73002,1.68725 8.25938,-1.9785 10.54239,-6.98917 z m -48.91572,3.95589 c 0,-4.29062 -3.93002,-15.35219 -5.293,-14.89786 -0.86522,0.2884 -2.19744,2.70125 -2.9605,5.36189 -1.19239,4.15763 -0.87181,5.26687 2.28104,7.89262 4.07926,3.39727 5.97246,3.91819 5.97246,1.64335 z m 75.86993,-8.08611 c 2.46813,-3.9418 -0.67502,-8.06408 -6.14868,-8.06408 -3.47722,0 -4.55031,0.77404 -4.94611,3.56775 -0.27802,1.96225 -0.10921,4.60056 0.37527,5.86292 1.17684,3.06679 8.5306,2.12928 10.71952,-1.36659 z m -76.55206,-15.82659 c -1.12045,-5.9725 -1.84555,-6.20407 -9.46185,-3.02179 -5.48612,2.29226 -5.88231,5.40825 -0.68764,5.40825 1.54616,0 4.443,1.33002 6.43742,2.9556 4.18656,3.41233 5.10614,2.08896 3.71207,-5.34206 z m 69.92379,3.53847 c 0.48602,-7.71167 -0.62378,-22.26158 -1.87655,-24.60242 -1.09217,-2.04072 -2.89837,-2.70778 -6.41059,-2.36754 -7.37511,0.71445 -7.37794,6.59525 -0.009,18.97365 5.73742,9.63788 8.05218,11.86897 8.29625,7.99631 z"
         style="fill:#be212c;fill-opacity:1" />
    </g>
  </g>
</svg>
