<?xml version="1.0" encoding="UTF-8" standalone="no"?>
<!-- Created with Inkscape (http://www.inkscape.org/) -->

<svg
   xmlns:dc="http://purl.org/dc/elements/1.1/"
   xmlns:cc="http://creativecommons.org/ns#"
   xmlns:rdf="http://www.w3.org/1999/02/22-rdf-syntax-ns#"
   xmlns:svg="http://www.w3.org/2000/svg"
   xmlns="http://www.w3.org/2000/svg"
   xmlns:sodipodi="http://sodipodi.sourceforge.net/DTD/sodipodi-0.dtd"
   xmlns:inkscape="http://www.inkscape.org/namespaces/inkscape"
   id="svg3039"
   version="1.1"
   inkscape:version="0.48.1 r9760"
   width="617.62195"
   height="480.42603"
   xml:space="preserve"
   sodipodi:docname="steria_challenge_accepted.svg"><metadata
     id="metadata3045"><rdf:RDF><cc:Work
         rdf:about=""><dc:format>image/svg+xml</dc:format><dc:type
           rdf:resource="http://purl.org/dc/dcmitype/StillImage" /><dc:title></dc:title></cc:Work></rdf:RDF></metadata><defs
     id="defs3043"><clipPath
       clipPathUnits="userSpaceOnUse"
       id="clipPath3055"><path
         d="m 0,0 3248.4,0 0,1460 L 0,1460 0,0 z"
         id="path3057"
         inkscape:connector-curvature="0" /></clipPath></defs><sodipodi:namedview
     pagecolor="#ffffff"
     bordercolor="#666666"
     borderopacity="1"
     objecttolerance="10"
     gridtolerance="10"
     guidetolerance="10"
     inkscape:pageopacity="0"
     inkscape:pageshadow="2"
     inkscape:window-width="1366"
     inkscape:window-height="744"
     id="namedview3041"
     showgrid="false"
     inkscape:zoom="1"
     inkscape:cx="295.6068"
     inkscape:cy="249.63476"
     inkscape:window-x="0"
     inkscape:window-y="24"
     inkscape:window-maximized="1"
     inkscape:current-layer="g3047"
     height="372.05px"
     fit-margin-top="0"
     fit-margin-left="0"
     fit-margin-right="0"
     fit-margin-bottom="0" /><g
     id="g3047"
     inkscape:groupmode="layer"
     inkscape:label="steria"
     transform="matrix(1.25,0,0,-1.25,-151.99212,391.47686)"><g
       id="g3049"
       transform="matrix(0.15715741,0,0,0.15715741,113.49509,98.963365)"><g
         id="g3051"><g
           id="g3053"
           clip-path="url(#clipPath3055)" /></g><path
         d="m 2092.8,1012.68 62.3984,0 0,267.602 -62.3984,0 0,-267.602 z"
         style="fill:#111987;fill-opacity:1;fill-rule:evenodd;stroke:none"
         id="path3061"
         inkscape:connector-curvature="0" /><path
         d="m 2092.8,1312.68 62.3984,0 0,48 -62.3984,0 0,-48 z"
         style="fill:#111987;fill-opacity:1;fill-rule:evenodd;stroke:none"
         id="path3063"
         inkscape:connector-curvature="0" /><path
         d="m 1237.2,1363.08 c -62.4,0 -62.4,0 -62.4,0 0,0 0,-78 0,-82.8 -4.8,0 -42,0 -42,0 0,-44.4 0,-44.4 0,-44.4 0,0 37.2,0 42,0 0,-6 0,-148.8 0,-148.8 0,-19.2 0,-74.4 111.6,-74.4 38.4,0 38.4,0 38.4,0 0,44.4 0,44.4 0,44.4 -27.6,0 -27.6,0 -27.6,0 -55.2,0 -60,15.6 -60,36 0,0 0,136.8 0,142.8 4.8,0 106.8,0 106.8,0 0,44.4 0,44.4 0,44.4 0,0 -102,0 -106.8,0 0,4.8 0,82.8 0,82.8"
         style="fill:#111987;fill-opacity:1;fill-rule:nonzero;stroke:none"
         id="path3065"
         inkscape:connector-curvature="0" /><path
         d="m 1561.2,1282.68 c -109.2,0 -184.8,-55.2 -184.8,-132 0,-80.4 80.4,-138 193.2,-138 7.2,0 116.4,0 121.2,0 l 0,42 c -4.8,0 -109.2,0 -116.4,0 -82.8,0 -124.8,40.8 -133.2,80.4 8.4,0 320.4,0 320.4,0 0,0 22.8,147.6 -200.4,147.6 z m -117.6,-102 c 18,39.6 60,62.4 123.6,62.4 91.2,0 118.8,-45.6 123.6,-62.4 -7.2,0 -236.4,0 -247.2,0"
         style="fill:#111987;fill-opacity:1;fill-rule:nonzero;stroke:none"
         id="path3067"
         inkscape:connector-curvature="0" /><path
         d="m 1821.6,1259.88 0,-247.2 c 62.4,0 62.4,0 62.4,0 0,0 0,207.6 0,210 76.8,22.8 166.8,13.2 166.8,13.2 0,44.4 0,44.4 0,44.4 -152.4,7.2 -214.8,-13.2 -229.2,-20.4"
         style="fill:#111987;fill-opacity:1;fill-rule:nonzero;stroke:none"
         id="path3069"
         inkscape:connector-curvature="0" /><path
         d="m 2570.4,1199.88 c 0,52.8 -55.2,80.4 -164.4,80.4 -135.6,0 -135.6,0 -135.6,0 0,-43.2 0,-43.2 0,-43.2 136.8,0 136.8,0 136.8,0 48,0 100.8,-1.2 100.8,-39.6 -50.4,-7.2 -297.6,0 -297.6,-102 0,-73.2 87.6,-85.2 140.4,-85.2 0,0 157.2,-4.8 219.6,25.2 l 0,164.4 z m -62.4,-44.4 c 0,-4.8 0,-82.8 0,-87.6 -34.8,-13.2 -105.6,-15.6 -159.6,-15.6 -18,0 -78,4.8 -78,40.8 0,42 99.6,51.6 237.6,62.4"
         style="fill:#111987;fill-opacity:1;fill-rule:nonzero;stroke:none"
         id="path3071"
         inkscape:connector-curvature="0" /><path
         d="m 934.801,1174.68 0,0 c -52.801,6 -104.403,10.8 -104.403,32.4 0,20.4 27.602,30 87.602,30 129.6,0 129.6,0 129.6,0 0,43.2 0,43.2 0,43.2 -129.6,0 -129.6,0 -129.6,0 -55.199,0 -150,-7.2 -150,-74.4 0,-62.4 84,-70.8 159.602,-75.6 57.597,-7.2 111.598,-13.2 111.598,-37.2 0,-30 -46.802,-50.4 -271.2,-32.4 l 0,-43.2 c 294,-30.003 334.8,27.6 334.8,78 0,64.8 -90,72 -167.999,79.2"
         style="fill:#111987;fill-opacity:1;fill-rule:nonzero;stroke:none"
         id="path3073"
         inkscape:connector-curvature="0" /><path
         d="m 3194.4,703.078 c -2.4,7.199 -20.4,16.801 -48,30 -69.6,27.598 -208.8,60 -346.8,76.801 -184.8,25.199 -367.2,22.797 -414,-52.801 -80.4,-127.199 4.8,-334.801 117.6,-397.199 16.8,-9.602 37.2,-15.602 56.4,-15.602 150,-7.199 309.6,66 432,147.602 127.2,88.797 214.8,182.398 202.8,211.199"
         style="fill:#ff5900;fill-opacity:1;fill-rule:nonzero;stroke:none"
         id="path3075"
         inkscape:connector-curvature="0" /><path
         d="m 3194.4,703.078 c -2.4,7.199 -20.4,16.801 -48,30 0,-2.402 0,-2.402 0,-2.402 13.2,-27.598 -81.6,-135.598 -208.8,-220.797 -123.6,-82.801 -285.6,-154.801 -432,-150 -2.4,0 -2.4,0 -2.4,0 16.8,-9.602 37.2,-15.602 56.4,-15.602 150,-7.199 309.6,66 432,147.602 127.2,88.797 214.8,182.398 202.8,211.199"
         style="fill:#bd0026;fill-opacity:1;fill-rule:nonzero;stroke:none"
         id="path3077"
         inkscape:connector-curvature="0" /><path
         d="m 2268,297.477 c -4.8,2.402 -9.6,2.402 -15.6,4.8 -132,42 -289.2,-20.398 -286.8,-42 0,-13.199 67.2,-66 142.8,-108 52.8,-30 106.8,-57.6012 150,-64.8004 19.2,-6 37.2,-2.3985 49.2,2.4023 48,27.5981 32.4,180.0001 -39.6,207.5981"
         style="fill:#ffb300;fill-opacity:1;fill-rule:nonzero;stroke:none"
         id="path3079"
         inkscape:connector-curvature="0" /><path
         d="m 2268,297.477 c -4.8,2.402 -9.6,2.402 -15.6,4.8 45.6,-52.8 63.6,-170.398 8.4,-212.3981 0,-2.4023 -2.4,-2.4023 -2.4,-2.4023 19.2,-6 37.2,-2.3985 49.2,2.4023 48,27.5981 32.4,180.0001 -39.6,207.5981"
         style="fill:#b32c02;fill-opacity:1;fill-rule:nonzero;stroke:none"
         id="path3081"
         inkscape:connector-curvature="0" /><path
         d="m 198,890.277 c -9.602,0 -16.801,0 -27.602,0 -61.199,-9.601 -121.1988,-60 -118.7964,-69.601 2.3984,-8.399 76.7964,-36 132.0004,-43.199 25.199,0 44.398,0 52.796,9.601 C 264,823.078 234,887.879 198,890.277"
         style="fill:#f0027f;fill-opacity:1;fill-rule:nonzero;stroke:none"
         id="path3083"
         inkscape:connector-curvature="0" /><path
         d="m 2367.6,547.078 c 0,4.801 -2.4,10.801 -2.4,13.199 -42,4.801 -132,12 -234,9.602 0,370.797 0,370.797 0,370.797 -13.2,0 -13.2,0 -13.2,0 0,-370.797 0,-370.797 0,-370.797 -87.6,-2.402 -182.4,-12 -259.2,-37.203 -40.8,21.601 -85.2,42 -132,62.402 -172.8,72 -390,129.598 -646.8,172.801 -397.199,67.199 -769.199,74.398 -836.398,74.398 2.398,-2.398 2.398,-7.199 2.398,-12 74.398,0 439.199,-9.601 831.6,-75.601 256.8,-42 471.6,-99.598 643.2,-172.797 177.6,-74.402 307.2,-164.402 385.2,-267.602 4.8,0 9.6,0 14.4,0 -55.2,78 -136.8,147.602 -247.2,207.602 172.8,55.199 424.8,32.398 494.4,25.199"
         style="fill:#111987;fill-opacity:1;fill-rule:nonzero;stroke:none"
         id="path3085"
         inkscape:connector-curvature="0" /><path
         d="m 198,890.277 c -9.602,0 -16.801,0 -27.602,0 33.602,-7.199 60,-69.601 36,-103.199 -6,-4.801 -13.199,-7.199 -22.796,-9.601 25.199,0 44.398,0 52.796,9.601 C 264,823.078 234,887.879 198,890.277"
         style="fill:#680032;fill-opacity:1;fill-rule:nonzero;stroke:none"
         id="path3087"
         inkscape:connector-curvature="0" /></g><g
       id="g4725"
       transform="matrix(1.5715741,0,0,1.5715741,-223.20928,-83.801259)"><path
         transform="matrix(0.9079367,0,0,-0.86493101,-44.6262,763.86963)"
         d="m 482.16859,735.71417 c 0,43.71997 -34.36804,79.16201 -76.76316,79.16201 -42.39513,0 -76.76316,-35.44204 -76.76316,-79.16201 0,-43.71997 34.36803,-79.16201 76.76316,-79.16201 42.39512,0 76.76316,35.44204 76.76316,79.16201 z"
         sodipodi:ry="79.16201"
         sodipodi:rx="76.763161"
         sodipodi:cy="735.71417"
         sodipodi:cx="405.40543"
         id="path4212"
         style="fill:#ffffff;fill-opacity:1;fill-rule:evenodd;stroke:none"
         sodipodi:type="arc" /><g
         transform="matrix(1.3213626,0,0,-1.3213626,242.0864,204.92714)"
         id="g3438"><g
           id="g4722"><path
             inkscape:connector-curvature="0"
             id="path3287"
             d="m 74.618825,141.80856 c -0.367606,-3.95529 -0.905288,-7.42836 -1.19485,-7.71792 -0.289562,-0.28956 -3.765914,0.58409 -7.725226,1.94144 -5.787227,1.98401 -7.261406,2.9091 -7.5183,4.71792 -0.347815,2.44901 -1.207802,2.82265 -2.809721,1.22073 -0.705695,-0.7057 -1.947472,-0.55045 -3.95,0.49384 -4.144871,2.16148 -4.867593,1.954 -6.21984,-1.78557 -2.38075,-6.58385 -0.575778,-10.42182 10.012756,-21.29045 C 61.694558,112.73619 61.543847,112.08573 53.5,111.99256 48.879835,111.93905 37.328096,107.501 31.174901,103.41551 2.1821764,84.165426 -2.2549053,46.328598 21.524356,21.121328 52.366537,-11.573009 107.0313,4.5614739 115.62639,48.895851 c 4.43755,22.889361 -8.55524,47.809191 -30.350281,58.210999 -6.716356,3.20542 -6.716356,3.20542 1.283777,5.8628 10.212995,3.39241 13.853964,5.57704 17.098974,10.25959 2.61344,3.77119 2.61344,3.77119 0.18478,6.19984 C 100.74193,132.5308 96,133.884 96,131.66743 c 0,-2.51044 -1.154367,-2.61061 -9.536493,-0.8275 C 78.5,132.53398 78.5,132.53398 78.850805,140.76699 79.175739,148.39282 79.057268,149 77.244405,149 c -1.699543,0 -2.045197,-0.94674 -2.62558,-7.19144 z M 69.75,129.47317 C 71.09687,129.16712 72,128.21285 72,127.09578 72,123.7025 68.719065,115 67.439761,115 64.39777,115 50,129.14236 50,132.13039 c 0,0.48169 14.553351,-1.47636 19.75,-2.65722 z m 18,-4.90864 c 4.5375,-1.50082 8.25,-2.93281 8.25,-3.18219 0,-1.48343 -21.591655,-8.12402 -22.72616,-6.98951 -0.406772,0.40677 0.187461,2.64235 3.312191,12.46092 0.236955,0.74457 0.989535,1.14806 1.672398,0.89666 0.682864,-0.2514 4.954071,-1.68505 9.491571,-3.18588 z M 64.532897,107.25 c -1.165696,-2.99519 -1.082681,-3.62018 0.528337,-3.97758 0.892444,-0.19799 2.166171,0.78397 2.97341,2.29231 1.863013,3.48107 6.221836,2.96021 16.642997,-1.98878 20.700589,-9.83066 32.156689,-33.598627 27.241429,-56.517732 -1.33398,-6.2201 -2.06394,-6.702588 -6.71934,-4.441325 -9.200027,4.468719 -22.762305,-0.83642 -26.901556,-10.523047 -1.333967,-3.121733 -1.294079,-3.622745 0.477691,-6 2.823625,-3.788571 7.817028,-6.366573 12.331588,-6.366573 3.843902,0 3.906363,-0.05453 2.2099,-1.929096 C 90.037458,14.173934 77.590434,9.0108575 69.176729,7.7845477 40.788218,3.6468806 15.729266,21.644298 10.378581,50.013561 4.9116955,78.99892 29.379571,108.7478 58.856989,108.95526 c 5.656388,0.0398 6.281927,-0.14813 5.675908,-1.70526 z M 82.644139,67.310806 C 82.265082,66.931749 83.877582,64.625547 86.227472,62.185914 90.5,57.750216 90.5,57.750216 84.900787,58.287293 81.82122,58.582685 74.654946,60.438886 68.975733,62.412185 57.243271,66.488744 57,66.53187 57,64.535184 c 0,-1.844272 1.42935,-2.589997 12.296235,-6.415229 14.559524,-5.125072 23.762721,-6.01466 25.138326,-2.429891 1.505878,3.924256 -9.06659,14.344573 -11.790422,11.620742 z M 47.472927,62.956195 c -0.937156,-1.51635 1.602945,-4.280323 2.817474,-3.065794 C 51.41191,61.01191 50.53939,64 49.090402,64 48.555599,64 47.827736,63.530288 47.472927,62.956195 z M 100.76277,56.25 c -0.25533,-1.5125 -0.64391,-3.398274 -0.863503,-4.19061 -0.219597,-0.792335 0.325013,-1.600656 1.210243,-1.796269 1.87099,-0.413438 4.44663,4.845219 3.53576,7.218919 -0.95618,2.491748 -3.38394,1.721344 -3.8825,-1.23204 z M 41.899776,40.492496 C 26.056302,35.44463 28.448238,21.918041 45.978497,17.426997 57.606232,14.44811 70.443741,20.097804 70.216393,28.093918 69.962,37.041246 53.580364,44.214031 41.899776,40.492496 z M 57.818499,36.461259 C 64.42487,34.499378 64.777418,32.48453 58.360429,33.364076 55.808665,33.713834 50.183665,34 45.860429,34 37.424613,34 35.682262,35.185738 41.75,36.797308 c 5.575585,1.480856 10.281741,1.382434 16.068499,-0.336049 z M 48,28.253108 C 48,26.993764 47.023037,26.821026 42.525709,27.285191 34.626028,28.10051 33.425152,29.399085 40,30.016382 c 6.525126,0.612629 8,0.287554 8,-1.763274 z m 17.916667,0.157707 c 0.850949,-0.838999 -0.866096,-1.594345 -4.83408,-2.126563 -3.97763,-0.533513 -5.542292,0.922709 -3.348537,3.116464 0.6924,0.692401 7.285297,-0.105182 8.182617,-0.989901 z M 54.825,23 c 5.324815,0 7.26085,-0.31415 6.517449,-1.057551 C 59.678142,20.278142 49.929037,19.663837 45.25,20.92844 40.291423,22.268595 39.325025,24.584995 44.125,23.625 45.84375,23.28125 50.65875,23 54.825,23 z m 48.62795,16.839485 c 3.75049,-1.708837 3.12875,-2.643917 -2.20295,-3.313213 -2.6125,-0.327951 -7.348645,-1.094379 -10.524767,-1.703173 -6.4779,-1.241673 -8.420551,-0.422157 -4.826816,2.036213 5.69347,3.894739 12.872419,5.113485 17.554533,2.980173 z M 105.5,32 c -0.33992,-0.55 -1.49148,-1 -2.55902,-1 C 101.87344,31 101,31.45 101,32 c 0,0.55 1.15156,1 2.55902,1 1.45136,0 2.2915,-0.432842 1.94098,-1 z m -14,-2 C 91.160081,29.45 88.996024,29.031628 86.690983,29.070285 83.43283,29.124926 82.945161,29.331863 84.5,30 c 2.827907,1.215193 7.751031,1.215193 7,0 z m 8.5,-3.883369 c 0,-1.222103 -3.666093,-2.086744 -8.916667,-2.102976 -5.770833,-0.01784 -4.38846,1.268702 2.228024,2.073571 2.853754,0.347148 5.526143,0.694537 5.938643,0.771976 0.4125,0.07744 0.75,-0.256718 0.75,-0.742571 z"
             style="fill:#000000" /></g></g></g></g></svg>