<?xml version="1.0" encoding="UTF-8" standalone="no"?>
<svg
   xmlns:dc="http://purl.org/dc/elements/1.1/"
   xmlns:cc="http://creativecommons.org/ns#"
   xmlns:rdf="http://www.w3.org/1999/02/22-rdf-syntax-ns#"
   xmlns:svg="http://www.w3.org/2000/svg"
   xmlns="http://www.w3.org/2000/svg"
   xmlns:sodipodi="http://sodipodi.sourceforge.net/DTD/sodipodi-0.dtd"
   xmlns:inkscape="http://www.inkscape.org/namespaces/inkscape"
   version="1.1"
   viewBox="0 0 769.962 323.79456"
   height="100%"
   width="100%"
   x="0px"
   y="0px"
   id="svg3183"
   inkscape:version="0.48.2 r9819"
   sodipodi:docname="webrebels.svg">
  <metadata
     id="metadata3309">
    <rdf:RDF>
      <cc:Work
         rdf:about="">
        <dc:format>image/svg+xml</dc:format>
        <dc:type
           rdf:resource="http://purl.org/dc/dcmitype/StillImage" />
      </cc:Work>
    </rdf:RDF>
  </metadata>
  <defs
     id="defs3307" />
  <sodipodi:namedview
     pagecolor="#ffffff"
     bordercolor="#666666"
     borderopacity="1"
     objecttolerance="10"
     gridtolerance="10"
     guidetolerance="10"
     inkscape:pageopacity="0"
     inkscape:pageshadow="2"
     inkscape:window-width="1366"
     inkscape:window-height="744"
     id="namedview3305"
     showgrid="false"
     inkscape:zoom="1.55"
     inkscape:cx="384.95"
     inkscape:cy="143.3171"
     inkscape:window-x="0"
     inkscape:window-y="24"
     inkscape:window-maximized="1"
     inkscape:current-layer="svg3183"
     fit-margin-top="0"
     fit-margin-left="0"
     fit-margin-right="0"
     fit-margin-bottom="0" />
  <path
     style="fill:#81893f;fill-rule:nonzero"
     inkscape:connector-curvature="0"
     id="path3221"
     d="m 157.622,211.212 v 29.435 c 49.736,-10.415 97.665,-25.633 145.37,-43.001 -48.373,7.7788 -96.337,13.131 -145.37,13.566" />
  <path
     style="fill:#f5f6ec;fill-rule:nonzero"
     inkscape:connector-curvature="0"
     id="path3223"
     d="m 30.43,13.882 c 13.109,32.416 26.414,64.745 39.918,97 -13.091,25.882 -26.38,51.65 -39.918,77.302 47.367,12.916 93.852,18.282 142.9,18.244 49.026,-1.6969 97.052,-7.9347 145.37,-16.201 V 45.357 15.922 C 221.444,32.551 126.74,40.01 30.43,13.8822" />
  <path
     style="fill:#81893f;fill-rule:nonzero"
     inkscape:connector-curvature="0"
     id="path3225"
     d="M 61.83,15.692 C 59.2254,9.4368 57.9225,6.2973 55.3167,0 c 81.941,21.712 162.8,21.105 246.61,12.527 -80.691,12.931 -159.35,18.646 -240.1,3.1656" />
  <path
     style="fill:#81893f;fill-rule:nonzero"
     inkscape:connector-curvature="0"
     id="path3227"
     d="m 0,90.572 c 0,0 15.778,-5.3525 35.24,0.22941 19.463,5.5857 25.683,18.13 25.683,18.13 0,0 -6.2203,10.747 -25.683,5.1643 C 15.779,108.51251 0,90.57271 0,90.57271" />
  <path
     style="fill:#81893f;fill-rule:nonzero"
     inkscape:connector-curvature="0"
     id="path3229"
     d="m 25.05,141.532 c 0,0 1.9001,-11.908 10.852,-18.306 8.9496,-6.3998 17.168,-1.9587 17.168,-1.9587 0,0 2.4936,8.9096 -6.4584,15.569 -8.9483,6.6567 -21.562,4.6955 -21.562,4.6955" />
  <path
     style="fill:#81893f;fill-rule:nonzero"
     inkscape:connector-curvature="0"
     id="path3231"
     d="m 25.05,57.232 c 0,0 1.8989,13.317 10.851,24.819 8.9496,11.504 17.166,10.952 17.166,10.952 0,0 2.4961,-7.522 -6.456,-18.766 C 37.6614,62.993 25.05,57.232 25.05,57.232" />
  <path
     style="fill:#f5f6ec;fill-rule:nonzero"
     inkscape:connector-curvature="0"
     id="path3233"
     d="M 739.54,27.102 C 599.75,-10.982 462.05,23.7618 323.41,49.23 c 0,48.29 -0.005,96.579 0,144.87 -47.751,18.011 -95.737,34.322 -145.37,46.377 188.85,-8.1952 372.42,-90.083 561.5,-39.074 -13.113,-32.416 -26.411,-64.746 -39.92,-96.996 13.09,-25.884 26.382,-51.653 39.92,-77.306" />
  <path
     style="fill:#81893f;fill-rule:nonzero"
     inkscape:connector-curvature="0"
     id="path3235"
     d="m 708.13,199.592 c 2.6071,6.2552 3.91,9.3897 6.517,15.687 -165.69,-39.03 -327.98,16.81 -493.22,28.92 162.79,-16.64 321.91,-75.93 486.7,-44.61" />
  <path
     style="fill:#81893f;fill-rule:nonzero"
     inkscape:connector-curvature="0"
     id="path3237"
     d="m 769.96,124.712 c 0,0 -15.78,5.3538 -35.238,-0.23066 -19.465,-5.5832 -25.688,-18.132 -25.688,-18.132 0,0 6.2228,-10.744 25.684,-5.1593 19.463,5.5832 35.242,23.522 35.242,23.522" />
  <path
     style="fill:#81893f;fill-rule:nonzero"
     inkscape:connector-curvature="0"
     id="path3239"
     d="m 744.92,73.752 c 0,0 -1.9051,11.909 -10.855,18.309 -8.952,6.3998 -17.166,1.96 -17.166,1.96 0,0 -2.5023,-8.9109 6.4497,-15.57 8.9496,-6.6579 21.571,-4.6992 21.571,-4.6992" />
  <path
     style="fill:#81893f;fill-rule:nonzero"
     inkscape:connector-curvature="0"
     id="path3241"
     d="m 744.92,158.062 c 0,0 -1.9051,-13.32 -10.855,-24.821 -8.952,-11.504 -17.168,-10.951 -17.168,-10.951 0,0 -2.4998,7.5207 6.4522,18.767 8.9496,11.242 21.571,17.005 21.571,17.005" />
  <path
     style="fill:#c7caa4;fill-rule:nonzero"
     inkscape:connector-curvature="0"
     id="path3243"
     d="m 729.05,192.242 c -38.32,-9.24 -78.335,-13.745 -121.89,-13.745 -76.766,0 -154.15,14.31 -228.98,28.149 -33.852,6.259 -68.305,12.619 -102.96,17.715 21.27,-6.825 42.355,-14.234 63.37,-22.017 V 52.794 c 11.265,-2.1121 22.533,-4.2678 33.54,-6.3762 76.799,-14.707 156.22,-29.916 234.29,-29.916 44.425,0 85.042,4.8014 123.89,14.661 -11.964,22.765 -24.153,46.413 -36.288,70.408 l -1.3066,2.5871 1.1196,2.6744 c 11.658,27.826 23.484,56.501 35.223,85.407 z M 739.541,27.102 C 694.987,14.964 650.643,10.224 606.411,10.224 c -89.472,0 -178.48,19.395 -267.83,36.182 v -9.9e-4 c -5.0595,0.95131 -10.12,1.8939 -15.181,2.8252 0,48.29 -0.005,96.579 0,144.87 -47.751,18.011 -95.737,34.322 -145.37,46.377 2.3876,-0.10349 4.7753,-0.22069 7.1616,-0.34661 0.77302,-0.0411 1.5448,-0.0886 2.3178,-0.13341 1.6246,-0.0911 3.2492,-0.18328 4.8713,-0.28427 0.88149,-0.0561 1.763,-0.1172 2.6445,-0.17456 1.5248,-0.10099 3.0484,-0.20322 4.5708,-0.3117 0.89894,-0.0648 1.7966,-0.13216 2.6956,-0.20073 1.5199,-0.11346 3.041,-0.22941 4.5596,-0.35285 0.87276,-0.071 1.7455,-0.14213 2.617,-0.21569 1.5697,-0.13092 3.1382,-0.26682 4.7067,-0.40646 0.81292,-0.0723 1.6246,-0.14463 2.4375,-0.21944 1.6607,-0.15336 3.3215,-0.3117 4.9822,-0.47378 0.71566,-0.0686 1.4313,-0.13715 2.147,-0.20947 1.8278,-0.18203 3.6556,-0.37154 5.4834,-0.5648 0.54735,-0.0573 1.0947,-0.11346 1.6408,-0.17206 2.1707,-0.23315 4.3414,-0.47254 6.5108,-0.72065 0.16832,-0.0187 0.33788,-0.0361 0.5062,-0.0561 0.001,0 0.002,-9.9e-4 0.004,-9.9e-4 123.85,-14.169 245.92,-50.855 369.26,-50.855 43.929,0 87.988,4.6481 132.38,16.625 -13.113,-32.416 -26.411,-64.746 -39.92,-96.996 13.09,-25.884 26.382,-51.653 39.92,-77.306" />
  <path
     style="fill:#c7caa4;fill-rule:nonzero"
     inkscape:connector-curvature="0"
     id="path3245"
     d="m 173.213,200.142 -0.39399,0 c -47.379,0 -91.027,-5.2453 -133.16,-16.019 11.893,-22.631 24.082,-46.281 36.287,-70.411 l 1.3079,-2.5871 -1.1184,-2.6744 c -11.861,-28.331 -23.683,-57 -35.211,-85.387 39.266,9.5542 80.08,14.212 124.34,14.212 40.787,0 85.067,-3.9885 138.23,-12.483 v 161.59 c -49.246,7.992 -90.967,12.389 -130.28,13.756 z M 319.083,45.352 V 15.917 c -5.0072,0.85531 -10.006,1.6794 -15,2.4836 -46.528,7.492 -92.52,12.594 -138.43,12.594 -44.879,0 -89.679,-4.8663 -134.84,-17.117 13.109,32.416 26.414,64.745 39.918,97 -13.091,25.882 -26.38,51.65 -39.918,77.302 47.203,12.871 93.535,18.244 142.39,18.244 h 0.50496 c 49.026,-1.6969 97.052,-7.9347 145.37,-16.201 v -144.87" />
  <path
     style="fill:#c7caa4;fill-rule:nonzero"
     inkscape:connector-curvature="0"
     id="path3247"
     d="m 35.24,94.212 c 14.781,4.2416 25.683,14.712 25.683,14.712 0,0 -6.2203,-12.544 -25.683,-18.13 C 15.779,85.2121 0,90.56459 0,90.56459 c 0,0 20.471,-0.5885 35.24,3.6469" />
  <path
     style="fill:#c7caa4;fill-rule:nonzero"
     inkscape:connector-curvature="0"
     id="path3249"
     d="m 53.07,121.272 c 0,0 -8.2189,-4.4411 -17.168,1.9587 -8.952,6.3973 -10.852,18.306 -10.852,18.306 0,0 4.8738,-10.617 10.852,-14.889 8.9496,-6.3986 17.168,-5.375 17.168,-5.375" />
  <path
     style="fill:#c7caa4;fill-rule:nonzero"
     inkscape:connector-curvature="0"
     id="path3251"
     d="m 46.61,77.652 c 4.8102,6.0408 6.3038,10.991 6.6667,14.295 C 53.60959,89.5207 53.60835,83.0249 46.61,74.236 37.6604,62.992 25.049,57.231 25.049,57.231 c 0,0 13.942,10.85 21.561,20.421" />
  <path
     style="fill:#c7caa4;fill-rule:nonzero"
     inkscape:connector-curvature="0"
     id="path3253"
     d="m 734.72,104.612 c 14.77,4.2366 35.242,20.106 35.242,20.106 0,0 -15.78,-17.939 -35.242,-23.522 -19.461,-5.5844 -25.684,5.1593 -25.684,5.1593 0,0 10.918,-5.9797 25.684,-1.743" />
  <path
     style="fill:#c7caa4;fill-rule:nonzero"
     inkscape:connector-curvature="0"
     id="path3255"
     d="m 723.35,81.862 c 7.6042,-5.6592 21.571,-8.1167 21.571,-8.1167 0,0 -12.621,-1.9587 -21.571,4.6992 -6.9746,5.1867 -6.9946,11.722 -6.6642,14.366 0.36032,-3.1482 1.8502,-7.3698 6.6642,-10.948" />
  <path
     style="fill:#c7caa4;fill-rule:nonzero"
     inkscape:connector-curvature="0"
     id="path3257"
     d="m 734.06,133.232 c -8.952,-11.504 -17.168,-10.951 -17.168,-10.951 0,0 8.2164,2.8627 17.168,14.367 6.0009,7.7127 10.855,21.405 10.855,21.405 0,0 -1.9051,-13.32 -10.855,-24.821" />
  <path
     style="fill:#81893f;fill-rule:nonzero"
     inkscape:connector-curvature="0"
     id="path3259"
     d="m 438.17,304.362 c 61.668,-3.0597 123.64,-4.7927 184.98,3.7117 -61.545,-6.0183 -123.35,-3.3576 -184.98,-0.13091 -21.067,1.1583 -21.067,-2.4225 0,-3.5808" />
  <path
     style="fill:#81893f;fill-rule:nonzero"
     inkscape:connector-curvature="0"
     id="path3261"
     d="m 331.79,311.792 c -61.673,3.0596 -123.64,4.7802 -184.98,-3.7117 61.542,6.0208 123.36,3.3689 184.98,0.13091 21.07,-1.1595 21.067,2.4213 -0.001,3.5808" />
  <path
     style="fill:#81893f;fill-rule:nonzero"
     inkscape:connector-curvature="0"
     id="path3263"
     d="m 396.3,314.362 c 0,0 -3.9237,0.43513 -3.8601,-2.7592 0.0648,-3.1956 4.7167,-1.8366 4.7167,-1.8366 -2.2492,1.8415 -0.85656,4.5957 -0.85656,4.5957 z m 0.57852,1.1022 -1.1321,3.8663 c 0,0 -0.45134,0.16956 -1.0099,-0.67452 -0.55981,-0.84284 2.142,-3.1918 2.142,-3.1918 z m 3.2005,-8.6603 c -0.13964,-3.1444 -0.19949,-7.7588 -10.658,-11.977 -10.453,-4.2192 -17.358,4.4374 -17.358,4.4374 -7.0656,12.387 11.161,18.422 11.161,18.422 l 0.43763,4.1905 c 0,0 0.65831,0.1546 1.6632,0.37404 l 0.37529,-1.5311 c 0,0 0.0786,0.95006 0.0224,1.6158 0.46008,0.0997 0.9775,0.20697 1.5286,0.32293 l 0.39648,-1.6582 c 0,0 0.0923,1.0847 0.015,1.7418 0.45633,0.0935 0.92388,0.18328 1.3989,0.27555 l 0.36781,-1.5996 c 0,0 0.0959,1.0112 0.0399,1.677 0.53612,0.0997 1.0747,0.1945 1.6009,0.27803 l 0.43015,-1.5972 c 0,0 0.0573,1.0037 -0.0213,1.667 0.52241,0.0823 1.0224,0.15709 1.4887,0.21071 l 0.44136,-1.6096 c 0,0 0.0562,0.99745 -0.0249,1.662 0.49747,0.0499 0.93884,0.0798 1.3091,0.0886 l 0.4314,-1.6046 c 0,0 0.0549,0.93385 -0.0138,1.5959 0.36531,-0.0274 0.59971,-0.0985 0.65707,-0.22942 0.6633,-1.5361 0.18078,-3.7192 0.18078,-3.7192 l 1.3603,-4.6306 c 0,0 -1.8029,-4.668 1.0224,-5.1044 1.6184,-0.24437 2.3465,-2.7928 1.7468,-3.2978" />
  <path
     style="fill:#c7caa4;fill-rule:nonzero"
     inkscape:connector-curvature="0"
     id="path3265"
     d="m 389.66,296.962 c 6.325,2.5547 9.053,5.2416 10.257,7.7002 -0.44636,-2.91 -2.2031,-6.4996 -10.488,-9.8398 -10.453,-4.2192 -16.486,3.5372 -17.358,4.4374 -0.87276,0.89147 -1.2468,2.7529 -1.5136,3.9998 0.23066,-0.52117 0.35534,-0.85032 0.87401,-1.6096 0.52366,-0.75557 7.1741,-9.1466 18.228,-4.688" />
  <path
     style="fill:#c7caa4;fill-rule:nonzero"
     inkscape:connector-curvature="0"
     id="path3267"
     d="m 400.08,306.802 c 0,0 -2.4998,-1.0199 -4.6568,-1.2805 0,0 2.6058,0.44511 4.8214,2.3278 0.0848,-0.4713 0.0399,-0.879 -0.16458,-1.0473" />
  <path
     style="fill:#100f0d;fill-rule:nonzero"
     inkscape:connector-curvature="0"
     id="path3269"
     d="m 163.806,121.652 c -0.12593,1.5074 -0.18827,2.2654 -0.3142,3.7728 -0.50371,0 -0.75556,-0.001 -1.2593,-0.001 -0.18827,-1.5074 -0.28178,-2.263 -0.47004,-3.7703 -2.4088,-20.015 -4.8164,-40.03 -7.2227,-60.046 -0.15834,-0.002 -12.249,-0.31669 -12.249,-0.31669 -2.4063,19.89 -4.8152,39.778 -7.224,59.667 -0.18951,1.4987 -0.28302,2.248 -0.47129,3.7466 -0.50371,-0.0262 -0.75432,-0.0386 -1.2555,-0.0661 -0.12717,-1.5149 -0.18951,-2.2742 -0.31669,-3.789 -2.2517,-20.137 -4.5022,-40.272 -6.7514,-60.409 -6.2814,-0.43388 -9.4221,-0.69696 -15.703,-1.3378 5.1742,38.919 10.355,77.838 15.546,116.75 5.2765,0.36531 7.9147,0.51244 13.191,0.73935 2.6208,-18.122 5.2353,-36.246 7.8511,-54.369 0.37653,-2.6894 0.5673,-4.0372 0.94383,-6.729 0.25186,0.006 0.37778,0.0113 0.62964,0.0175 0.37653,2.7093 0.56231,4.0633 0.94009,6.7739 2.617,18.259 5.2328,36.52 7.8499,54.78 5.2777,0.0486 7.9172,0.0399 13.194,-0.0324 5.1904,-38.611 10.37,-77.224 15.546,-115.84 -6.2814,0.24562 -9.4208,0.32915 -15.703,0.41518 -2.248,20.012 -4.4997,40.025 -6.7514,60.039" />
  <path
     style="fill:#c7caa4;fill-rule:nonzero"
     inkscape:connector-curvature="0"
     id="path3271"
     d="m 108.75,57.332 0.26183,1.9724 c 5.173,38.919 10.353,77.838 15.545,116.75 l 0.17081,1.2705 1.278,0.0873 c 5.2964,0.36656 7.8935,0.51369 13.232,0.7431 l 1.4189,0.0598 0.20323,-1.4039 c 2.5185,-17.424 5.0333,-34.846 7.5469,-52.27 l 3.6332,25.349 3.9262,27.39 0.19076,1.3353 1.349,0.0125 c 2.1981,0.0212 3.9399,0.0311 5.6044,0.0311 2.2019,0 4.2691,-0.0175 7.6254,-0.0623 l 1.354,-0.0186 0.18079,-1.3428 c 5.1892,-38.611 10.368,-77.226 15.546,-115.84 l 0.24687,-1.8515 -1.8652,0.0735 c -6.3338,0.24687 -9.4084,0.32791 -15.664,0.41394 l -1.384,0.0187 -0.1546,1.3765 -6.1617,54.792 -0.0698,0.62216 c -2.223,-18.478 -4.4461,-36.954 -6.6679,-55.433 l -0.16333,-1.3565 -1.3652,-0.0262 c -0.23689,-0.005 -12.239,-0.31669 -12.239,-0.31669 l -1.4276,-0.0374 -0.17206,1.4189 c -2.2181,18.334 -4.4374,36.667 -6.6579,55.001 l -0.17331,-1.5435 c -2.0223,-18.099 -4.0459,-36.195 -6.0669,-54.293 l -0.14588,-1.3029 -1.3066,-0.0898 c -6.4148,-0.44386 -9.4869,-0.70569 -15.652,-1.3341 l -1.9774,-0.20323 z m 1.8178,1.7655 c 6.2814,0.64086 9.4221,0.90394 15.703,1.3378 2.2492,20.137 4.4997,40.272 6.7514,60.409 0.12717,1.5149 0.18951,2.2742 0.31669,3.789 0.50122,0.0274 0.75182,0.0399 1.2555,0.0661 0.18827,-1.4986 0.28178,-2.248 0.47129,-3.7466 2.4088,-19.889 4.8176,-39.777 7.224,-59.667 0,0 12.09,0.3142 12.249,0.31669 2.4063,20.016 4.8139,40.031 7.2227,60.046 0.18827,1.5074 0.28178,2.2629 0.47004,3.7703 0.50371,0 0.75556,0.001 1.2593,0.001 0.12593,-1.5074 0.18827,-2.2654 0.3142,-3.7728 2.2517,-20.014 4.5035,-40.026 6.7514,-60.039 6.2826,-0.0861 9.4221,-0.16957 15.703,-0.41519 -5.1767,38.612 -10.356,77.226 -15.546,115.84 -3.0846,0.0424 -5.2665,0.0636 -7.603,0.0636 -1.6595,0 -3.3975,-0.0113 -5.5907,-0.0311 -2.617,-18.259 -5.2328,-36.52 -7.8499,-54.78 -0.37778,-2.7106 -0.56356,-4.0646 -0.94009,-6.7739 -0.25185,-0.006 -0.37778,-0.0113 -0.62964,-0.0174 -0.37653,2.6918 -0.5673,4.0396 -0.94383,6.729 -2.6158,18.124 -5.2303,36.247 -7.8511,54.369 -5.2765,-0.22691 -7.9147,-0.37404 -13.191,-0.73935 -5.1917,-38.915 -10.372,-77.834 -15.546,-116.75" />
  <path
     style="fill:#100f0d;fill-rule:nonzero"
     inkscape:connector-curvature="0"
     id="path3273"
     d="m 233.213,75.202 c 0,-6.9721 -0.002,-10.459 -0.002,-17.433 -15.514,1.6109 -23.274,2.253 -38.788,3.0522 0,38.475 -0.002,76.95 0,115.42 15.514,-0.7992 23.273,-1.4401 38.788,-3.0497 v -17.434 c -8.7289,0.90642 -13.096,1.3029 -21.827,1.965 v -23.794 c 0,-3.1706 -10e-4,-4.7541 -10e-4,-7.9234 6.2826,-0.47753 9.4221,-0.74933 15.705,-1.3528 v -18.531 c -6.2826,0.60594 -9.4221,0.87525 -15.703,1.3528 v -30.31 c 8.7314,-0.66081 13.098,-1.061 21.829,-1.9662" />
  <path
     style="fill:#c7caa4;fill-rule:nonzero"
     inkscape:connector-curvature="0"
     id="path3275"
     d="m 234.781,56.032 -1.7318,0.17954 c -15.091,1.566 -22.802,2.2268 -38.708,3.0459 l -1.4887,0.0761 v 1.4924 l -0.001,38.475 c 0,25.649 -10e-4,51.3 0.001,76.949 v 1.6533 l 1.6508,-0.0848 c 16.003,-0.82414 23.742,-1.4862 38.869,-3.0559 l 1.4089,-0.14712 v -20.591 l -1.7318,0.17954 c -8.2551,0.8578 -12.53,1.2505 -20.096,1.8328 v -22.1 l -10e-4,-3.9623 v -2.5061 c 5.3363,-0.4102 8.4197,-0.68076 14.286,-1.2443 l 1.4201,-0.13715 v -21.687 l -1.7218,0.16582 c -5.6767,0.5486 -8.7363,0.81666 -13.983,1.2219 v -27.16 c 7.613,-0.58351 11.917,-0.9775 20.421,-1.859 l 1.4089,-0.14587 v -1.4164 l -0.001,-8.7164 -9.9e-4,-8.7164 v -1.7418 z m -1.571,1.7418 c 0,6.9734 0.002,10.461 0.002,17.433 -8.7314,0.90518 -13.098,1.3054 -21.829,1.9662 v 30.31 c 6.2814,-0.47753 9.4208,-0.74684 15.703,-1.3528 v 18.531 c -6.2826,0.60345 -9.4221,0.87525 -15.705,1.3528 0,3.1694 0.001,4.7528 0.001,7.9234 v 23.794 c 8.7301,-0.66206 13.098,-1.0585 21.827,-1.965 v 17.434 c -15.515,1.6096 -23.274,2.2505 -38.788,3.0497 -0.002,-38.474 0,-76.949 0,-115.42 15.514,-0.79921 23.274,-1.4413 38.788,-3.0522" />
  <path
     style="fill:#100f0d;fill-rule:nonzero"
     inkscape:connector-curvature="0"
     id="path3277"
     d="m 259.591,102.232 c 0,-12.311 -0.002,-18.469 -0.002,-30.78 3.1407,-0.41768 12.564,-2.2118 12.564,13.648 0,15.863 -9.4221,16.716 -12.562,17.132 z m 0,51.037 v -35.488 c 3.1394,-0.41643 12.56,-2.9986 12.56,16.001 0,19.004 -9.4208,19.071 -12.56,19.486 z m 18.374,-46.718 c 8.1653,-8.2875 10.296,-15.044 10.521,-25.49 0.42516,-19.579 -12.197,-28.79 -30.937,-26.143 -6.3624,0.8977 -14.919,1.8303 -14.919,1.8303 0,38.476 0.001,76.95 0,115.42 8.3548,-0.95879 12.532,-1.4874 20.886,-2.6258 18.227,-2.7791 26.508,-19.823 26.226,-36.546 -0.37903,-22.54 -11.777,-26.45 -11.777,-26.45" />
  <path
     style="fill:#c7caa4;fill-rule:nonzero"
     inkscape:connector-curvature="0"
     id="path3279"
     d="m 261.161,119.132 c 0.53737,-0.0711 1.1321,-0.13216 1.748,-0.13216 1.8976,0 7.6728,0 7.6728,14.778 0,14.857 -5.7328,17.109 -9.4208,17.702 v -32.348 z m -0.002,-46.303 c 0.46755,-0.0499 0.97749,-0.0873 1.5149,-0.0873 2.1944,0 3.8613,0.63338 5.0994,1.9363 1.864,1.9625 2.8103,5.4672 2.8103,10.417 0,12.207 -5.7453,14.608 -9.4221,15.309 l -10e-4,-13.566 -9.9e-4,-14.009 z m 2.4662,-19.931 c -2.0136,0 -4.1319,0.1546 -6.2951,0.46007 -6.2639,0.88523 -14.785,1.8153 -14.869,1.8253 l -1.4002,0.15211 v 116.83 l -0.001,1.7605 1.7505,-0.20074 c 8.2264,-0.94258 12.332,-1.4588 20.919,-2.6295 19.456,-2.9674 27.869,-21.287 27.586,-38.128 -0.29923,-17.718 -7.2315,-24.512 -10.789,-26.837 7.6579,-8.3698 9.3286,-15.62 9.5318,-25.042 0.19201,-8.8336 -2.243,-16.095 -7.0394,-20.997 -4.6069,-4.7067 -11.312,-7.1953 -19.393,-7.1953 z m -4.0334,100.37 c 3.1394,-0.41519 12.56,-0.48252 12.56,-19.486 0,-14.214 -5.2715,-16.349 -9.2426,-16.348 -1.3366,0 -2.5273,0.24188 -3.3177,0.34661 v 35.488 m 0,-51.037 c 3.1394,-0.41644 12.562,-1.2692 12.562,-17.132 0,-12.099 -5.4847,-13.923 -9.4794,-13.923 -1.2418,0 -2.3402,0.17705 -3.0846,0.27554 0,12.311 0.002,18.469 0.002,30.78 m 4.0334,-47.759 c 15.334,0 25.239,9.2101 24.861,26.588 -0.22442,10.446 -2.3552,17.202 -10.521,25.49 0,0 11.398,3.91 11.777,26.45 0.28178,16.723 -7.9995,33.767 -26.226,36.546 -8.3548,1.1383 -12.532,1.667 -20.886,2.6258 0.001,-38.474 0,-76.948 0,-115.42 0,0 8.5568,-0.93261 14.919,-1.8303 2.1071,-0.29799 4.1332,-0.44511 6.0757,-0.44511" />
  <path
     style="fill:#100f0d;fill-rule:nonzero"
     inkscape:connector-curvature="0"
     id="path3281"
     d="M 373.91,120.202 V 85.965 c 4.7104,-0.91391 12.56,-1.8141 12.56,14.676 0,16.489 -7.8499,18.647 -12.56,19.561 z m 28.893,-23.355 c 0.69697,-16.851 -9.9545,-33.064 -28.893,-27.685 -6.7838,1.3166 -10.176,1.9712 -16.96,3.2704 v 115.42 c 6.7839,-1.2979 10.174,-1.9525 16.958,-3.2679 0.004,-16.228 0,-32.456 0,-48.684 1.8228,-0.35285 2.7318,-0.52865 4.5546,-0.88274 2.9337,15.657 5.8625,31.317 8.795,46.975 6.7851,-1.3191 10.176,-1.9787 16.962,-3.2878 -3.6145,-17.937 -7.224,-35.872 -10.837,-53.808 6.4372,-5.648 8.9695,-17.071 9.4221,-28.051" />
  <path
     style="fill:#c7caa4;fill-rule:nonzero"
     inkscape:connector-curvature="0"
     id="path3283"
     d="m 375.48,87.282 c 0.65956,-0.0984 1.3378,-0.16583 2.0211,-0.16583 h 9.9e-4 c 2.157,0 3.7005,0.68948 4.8576,2.1719 1.6869,2.1582 2.541,5.9772 2.541,11.351 0,13.565 -5.3949,16.553 -9.4208,17.61 v -30.967 z m 5.5483,-20.742 c -2.3951,0 -4.9124,0.36656 -7.4821,1.091 -6.739,1.3066 -10.132,1.9612 -16.892,3.2566 l -1.2755,0.24438 v 118.62 l 1.8652,-0.35783 c 6.7864,-1.2967 10.176,-1.9512 16.963,-3.2679 l 1.2705,-0.24687 v -1.2942 c 0.002,-10.819 0.002,-21.637 0.001,-32.456 v -14.933 l 1.7306,-0.33539 4.5508,24.301 3.9536,21.12 0.29175,1.5535 1.551,-0.30172 1.2244,-0.2369 c 5.9934,-1.1658 9.3722,-1.8228 15.735,-3.0497 l 1.5548,-0.30048 -0.31295,-1.5523 -6.5557,-32.553 -4.107,-20.391 c 7.3237,-7.1367 8.9608,-20.854 9.2787,-28.539 0.38401,-9.3111 -2.6033,-18.222 -7.9908,-23.836 -4.1007,-4.274 -9.4096,-6.5332 -15.354,-6.5332 z m -7.118,53.66 c 4.7104,-0.91391 12.56,-3.0721 12.56,-19.561 0,-12.722 -4.6718,-15.094 -8.9695,-15.094 -1.273,0 -2.5148,0.20822 -3.5908,0.41768 v 34.237 m 7.118,-52.089 c 14.455,0 22.379,14.128 21.775,28.734 -0.45259,10.979 -2.9848,22.403 -9.4221,28.051 3.6132,17.936 7.2227,35.872 10.837,53.808 -6.7851,1.3091 -10.176,1.9687 -16.962,3.2878 -2.9325,-15.657 -5.8612,-31.317 -8.795,-46.975 -1.8228,0.35409 -2.7317,0.52989 -4.5546,0.88274 0,16.228 0.004,32.456 0,48.684 -6.7838,1.3154 -10.174,1.97 -16.958,3.2679 v -115.42 c 6.7839,-1.2992 10.176,-1.9537 16.96,-3.2704 2.5223,-0.71567 4.8974,-1.0486 7.118,-1.0486" />
  <path
     style="fill:#100f0d;fill-rule:nonzero"
     inkscape:connector-curvature="0"
     id="path3285"
     d="m 430.6,124.532 c 6.2814,-1.1695 9.4221,-1.7468 15.703,-2.8751 v -18.532 c -6.2814,1.1284 -9.4221,1.7069 -15.703,2.8776 v -30.31 c 8.7314,-1.6246 13.096,-2.425 21.828,-3.9648 v -17.43 c -15.516,2.7392 -23.275,4.2017 -38.792,7.1679 0,38.476 -0.002,76.95 0,115.43 15.516,-2.9662 23.275,-4.4324 38.792,-7.1716 0,-6.9721 0.004,-10.461 0.004,-17.433 -8.7314,1.541 -13.1,2.3402 -21.832,3.9661 v -31.72" />
  <path
     style="fill:#c7caa4;fill-rule:nonzero"
     inkscape:connector-curvature="0"
     id="path3287"
     d="m 453.99,52.432 -1.844,0.32542 c -15.393,2.7168 -23.258,4.198 -38.813,7.1716 l -1.2755,0.24437 v 39.774 c -10e-4,25.649 -0.002,51.298 0,76.949 v 1.8976 l 1.8652,-0.35658 c 16.021,-3.0622 23.515,-4.4735 38.769,-7.1666 l 1.2979,-0.22816 v -1.3179 l 10e-4,-8.7164 0.001,-8.7164 v -1.8714 l -1.8428,0.32541 c -8.0718,1.4238 -12.428,2.2168 -19.987,3.6232 v -28.526 c 5.2952,-0.98498 8.4184,-1.5585 14.409,-2.6345 l 1.2929,-0.23315 v -21.723 l -1.8478,0.33165 c -5.5882,1.0049 -8.7052,1.576 -13.854,2.5335 v -27.114 c 8.0618,-1.4987 12.437,-2.2966 20.53,-3.7242 l 1.2979,-0.22942 v -20.618 z m -1.571,1.8715 v 17.43 c -8.7314,1.5398 -13.096,2.3402 -21.828,3.9648 v 30.31 c 6.2814,-1.1708 9.4221,-1.7493 15.703,-2.8776 v 18.532 c -6.2814,1.1284 -9.4221,1.7056 -15.703,2.8751 v 31.72 c 8.7314,-1.6258 13.1,-2.425 21.832,-3.9661 0,6.9721 -0.004,10.461 -0.004,17.433 -15.516,2.7392 -23.275,4.2055 -38.792,7.1716 -0.002,-38.475 0,-76.949 0,-115.43 15.516,-2.9662 23.275,-4.4286 38.792,-7.1679" />
  <path
     style="fill:#100f0d;fill-rule:nonzero"
     inkscape:connector-curvature="0"
     id="path3289"
     d="m 478.81,97.432 v -30.78 c 3.1407,-0.50122 12.56,-2.4163 12.56,13.443 0,15.862 -9.4196,16.834 -12.56,17.337 z m 0,51.039 V 112.98 c 3.1407,-0.50246 12.56,-3.2018 12.56,15.798 0,19.003 -9.4196,19.192 -12.56,19.693 z m 18.37,-46.93 c 8.1641,-8.2501 10.299,-14.889 10.517,-25.345 0.40771,-19.491 -12.063,-29.236 -30.938,-26.018 -6.3699,1.086 -14.918,2.4824 -14.918,2.4824 v 115.42 c 8.3561,-1.4301 12.533,-2.1233 20.886,-3.4324 18.106,-2.9861 26.518,-19.714 26.23,-36.485 -0.39025,-22.531 -11.777,-26.625 -11.777,-26.625" />
  <path
     style="fill:#c7caa4;fill-rule:nonzero"
     inkscape:connector-curvature="0"
     id="path3291"
     d="m 480.38,114.312 c 0.58974,-0.0923 1.2493,-0.17082 1.9338,-0.17082 2.0734,0 3.5858,0.71317 4.764,2.2467 1.8054,2.3515 2.7205,6.5233 2.7205,12.398 0,14.826 -5.7378,17.19 -9.4184,17.867 v -32.341 z m 0,-46.301 c 0.53114,-0.0685 1.1221,-0.12218 1.738,-0.12218 2.1333,0 3.7566,0.63462 4.9635,1.9375 1.8029,1.9475 2.7168,5.4061 2.7168,10.277 0,12.171 -5.7552,14.686 -9.4184,15.47 v -27.563 z m 3.2055,-20.002 c -2.2592,0 -4.6431,0.21071 -7.0868,0.62715 -6.2914,1.0722 -14.821,2.4674 -14.907,2.4811 l -1.3166,0.2157 v 118.62 l 1.8353,-0.31419 c 8.2488,-1.4114 12.419,-2.1046 20.865,-3.4287 19.436,-3.2055 27.842,-21.426 27.556,-38.064 -0.30672,-17.744 -7.2576,-24.628 -10.799,-26.991 7.714,-8.3598 9.3373,-15.329 9.538,-24.92 0.18702,-8.9334 -2.2767,-16.272 -7.123,-21.222 -4.4885,-4.582 -10.906,-7.0045 -18.562,-7.0045 z m -4.7765,100.47 c 3.1407,-0.50121 12.56,-0.69073 12.56,-19.693 0,-13.993 -5.1082,-16.216 -9.0555,-16.216 -1.4114,0 -2.6769,0.28552 -3.5048,0.41768 v 35.491 m 0,-51.039 c 3.1407,-0.50246 12.56,-1.475 12.56,-17.337 0,-11.873 -5.279,-13.785 -9.2513,-13.785 -1.3328,0 -2.5198,0.2157 -3.309,0.34163 v 30.78 m 4.7765,-47.862 c 14.992,0 24.472,9.5916 24.116,26.624 -0.21819,10.456 -2.3527,17.095 -10.517,25.345 0,0 11.387,4.0945 11.777,26.625 0.28801,16.771 -8.1242,33.499 -26.23,36.485 -8.3536,1.3091 -12.53,2.0024 -20.886,3.4324 v -115.42 c 0,0 8.5481,-1.3964 14.918,-2.4824 2.3814,-0.40646 4.6593,-0.60595 6.8225,-0.60595" />
  <path
     style="fill:#100f0d;fill-rule:nonzero"
     inkscape:connector-curvature="0"
     id="path3293"
     d="m 519,159.542 c 15.518,-1.9201 23.277,-2.7405 38.793,-3.9337 0,-6.9721 -0.004,-10.459 -0.004,-17.433 -8.7314,0.67203 -13.096,1.0772 -21.828,1.9911 v -31.72 c 6.2814,-0.65831 9.4271,-0.9563 15.708,-1.4924 V 88.423 c -6.2814,0.53238 -9.4271,0.83411 -15.708,1.4899 v -30.309 c 8.7314,-0.91391 13.1,-1.3154 21.832,-1.9874 v -17.429 c -15.516,1.192 -23.275,2.0074 -38.793,3.9274 v 115.43" />
  <path
     style="fill:#c7caa4;fill-rule:nonzero"
     inkscape:connector-curvature="0"
     id="path3295"
     d="m 559.36,38.492 -1.6907,0.12967 c -15.94,1.2256 -23.684,2.0572 -38.864,3.9349 l -1.379,0.17081 v 118.59 l 1.7642,-0.2182 c 15.192,-1.8802 22.917,-2.7105 38.719,-3.9262 l 1.45,-0.11096 v -1.455 l -0.002,-8.7164 -10e-4,-8.7164 v -1.6956 l -1.6907,0.12967 c -7.9795,0.61467 -12.25,0.99619 -20.136,1.8141 v -28.562 c 5.3924,-0.55981 8.462,-0.84782 14.271,-1.3428 l 1.4376,-0.12219 v -21.684 l -1.7031,0.14588 c -5.6268,0.47753 -8.6915,0.76304 -14.005,1.3116 v -27.15 c 7.9746,-0.82788 12.241,-1.2106 20.38,-1.8365 l 1.45,-0.11097 v -20.58 z m -1.5697,1.6956 v 17.429 c -8.7314,0.67203 -13.1,1.0735 -21.832,1.9874 v 30.309 c 6.2814,-0.65582 9.4271,-0.95755 15.708,-1.4899 v 18.531 c -6.2814,0.53612 -9.4271,0.83411 -15.708,1.4924 v 31.72 c 8.7314,-0.9139 13.096,-1.3191 21.828,-1.9911 0,6.9734 0.004,10.461 0.004,17.433 -15.516,1.1932 -23.275,2.0136 -38.793,3.9337 v -115.43 c 15.518,-1.9201 23.277,-2.7355 38.793,-3.9274" />
  <path
     style="fill:#100f0d;fill-rule:nonzero"
     inkscape:connector-curvature="0"
     id="path3297"
     d="m 584.17,38.652 c -6.7851,0.26058 -10.176,0.43513 -16.962,0.86777 v 115.43 c 15.768,-1.0049 23.651,-1.3054 39.419,-1.3229 v -15.7 c -8.9845,0.009 -13.474,0.10473 -22.457,0.4476 v -99.718" />
  <path
     style="fill:#c7caa4;fill-rule:nonzero"
     inkscape:connector-curvature="0"
     id="path3299"
     d="m 585.74,37.022 -1.6321,0.0623 c -6.7838,0.26183 -10.12,0.4314 -17,0.87027 l -1.47,0.0935 v 118.57 l 1.6695,-0.10723 c 15.296,-0.97375 23.122,-1.3017 39.32,-1.3191 l 1.5685,-9.9e-4 v -18.84 l -1.571,9.9e-4 c -8.3473,0.009 -12.752,0.0873 -20.885,0.38776 v -99.719 z m -1.571,1.6321 v 99.718 c 8.9832,-0.34287 13.473,-0.43888 22.457,-0.4476 v 15.7 c -15.768,0.0174 -23.651,0.31793 -39.419,1.3229 v -115.43 c 6.7851,-0.43264 10.176,-0.60719 16.962,-0.86777" />
  <path
     style="fill:#100f0d;fill-rule:nonzero"
     inkscape:connector-curvature="0"
     id="path3301"
     d="m 634.89,53.192 c 5.557,0.18577 6.7527,9.346 6.7527,17.041 6.6579,-0.19699 9.9894,-0.24312 16.647,-0.20697 0.47005,-15.056 -6.0969,-31.954 -23.713,-32.396 -15.928,-0.40022 -22.141,13.791 -22.141,26.354 0,12.406 7.6629,24.27 15.545,36.326 6.4597,9.8784 13.661,19.704 13.661,27.398 0,7.2227 -1.8864,12.575 -6.9098,12.32 -7.0656,-0.36032 -8.0082,-10.4 -8.0082,-19.978 -6.6579,0.3915 -9.9856,0.64086 -16.645,1.2368 -0.96503,16.22 5.7465,33.914 24.653,34.285 17.966,0.35036 23.557,-11.893 23.557,-27.284 0,-12.406 -7.9795,-24.805 -15.863,-36.961 -6.4771,-9.9944 -13.347,-19.081 -13.347,-26.933 0,-6.5968 1.4949,-11.345 5.8101,-11.201" />
  <path
     style="fill:#c7caa4;fill-rule:nonzero"
     inkscape:connector-curvature="0"
     id="path3303"
     d="m 633.92,36.052 0,0 c -7.5494,-10e-4 -13.715,3.1868 -17.832,9.2189 -3.3689,4.9373 -5.2241,11.583 -5.2241,18.713 0,13.019 8.0332,25.304 15.803,37.185 0.76554,1.172 1.5423,2.344 2.3166,3.511 5.4498,8.2189 11.087,16.718 11.087,23.028 0,4.9074 -0.86777,10.757 -4.9984,10.757 -0.0848,0 -0.17331,-0.002 -0.26183,-0.006 -4.506,-0.23066 -6.517,-5.9074 -6.517,-18.409 v -1.6657 l -1.6632,0.0973 c -6.628,0.39025 -9.9046,0.63338 -16.691,1.2406 l -1.3466,0.12094 -0.0811,1.3503 c -0.68699,11.522 2.3477,21.84 8.3224,28.307 4.5521,4.9274 10.564,7.497 17.867,7.6404 0.26183,0.005 0.52241,0.007 0.77925,0.007 15.949,0 24.38,-9.9794 24.38,-28.861 0,-12.963 -8.1928,-25.598 -16.116,-37.816 -0.9139,-1.4126 -1.839,-2.8066 -2.7492,-4.1818 -5.3201,-8.0356 -10.345,-15.625 -10.345,-21.898 0,-6.3924 1.3628,-9.634 4.0484,-9.634 l 0.13839,0.002 c 3.3252,0.11096 5.2341,5.7502 5.2341,15.472 v 1.6171 l 1.6171,-0.0474 c 5.567,-0.16458 8.7127,-0.21819 12.942,-0.21819 1.1184,0 2.3178,0.005 3.6506,0.0113 l 1.5311,0.009 0.0474,-1.5298 c 0.34038,-10.932 -2.7866,-20.718 -8.5805,-26.847 -4.3364,-4.5882 -9.9432,-6.9983 -16.664,-7.1666 -0.23315,-0.006 -0.46506,-0.009 -0.69447,-0.009 z m 0,1.5697 c 0.2157,0 0.43638,0.002 0.65582,0.009 17.616,0.44137 24.183,17.339 23.713,32.396 -1.3366,-0.007 -2.5385,-0.0113 -3.6594,-0.0113 -4.4685,0 -7.6666,0.0611 -12.988,0.21819 0,-7.6953 -1.1957,-16.856 -6.7527,-17.041 -0.0648,-0.002 -0.12718,-0.002 -0.19076,-0.002 -4.1693,0 -5.6193,4.7042 -5.6193,11.204 0,7.8524 6.8699,16.939 13.347,26.933 7.8835,12.156 15.863,24.556 15.863,36.961 0,15.176 -5.4336,27.29 -22.809,27.29 -0.24686,0 -0.49747,-0.002 -0.74808,-0.006 -18.907,-0.3703 -25.618,-18.065 -24.653,-34.285 6.6592,-0.59598 9.9869,-0.84534 16.645,-1.2368 0,9.5779 0.94258,19.617 8.0082,19.978 0.11471,0.006 0.22817,0.009 0.34038,0.009 4.7678,0 6.5694,-5.2715 6.5694,-12.328 0,-7.694 -7.2015,-17.52 -13.661,-27.398 -7.8823,-12.055 -15.545,-23.92 -15.545,-36.326 0,-12.389 6.0408,-26.364 21.485,-26.362" />
</svg>
